<?xml version="1.0" standalone="no"?>
<!DOCTYPE svg PUBLIC "-//W3C//DTD SVG 20010904//EN"
 "http://www.w3.org/TR/2001/REC-SVG-20010904/DTD/svg10.dtd">
<svg version="1.0" xmlns="http://www.w3.org/2000/svg"
 width="807.000000pt" height="807.000000pt" viewBox="0 0 807.000000 807.000000"
 preserveAspectRatio="xMidYMid meet">
<metadata>
Created by potrace 1.11, written by Peter Selinger 2001-2013
</metadata>
<g transform="translate(0.000000,807.000000) scale(0.100000,-0.100000)"
fill="#000000" stroke="none">
<path d="M3904 7696 c-45 -20 -751 -551 -764 -575 -17 -33 -12 -84 13 -112 17
-21 560 -421 756 -559 37 -25 108 -37 166 -26 27 5 127 80 409 305 205 164
376 306 379 316 13 32 7 72 -13 98 -23 28 -730 521 -789 549 -43 21 -114 22
-157 4z"/>
<path d="M4910 6992 c-19 -10 -195 -147 -391 -304 -248 -199 -360 -295 -368
-316 -14 -33 -8 -76 12 -104 20 -26 807 -599 852 -619 54 -25 112 -24 166 4
44 22 680 561 732 620 39 45 37 96 -5 141 -38 40 -774 550 -833 577 -51 24
-121 24 -165 1z"/>
<path d="M2933 6970 c-32 -13 -784 -578 -810 -609 -23 -26 -30 -80 -17 -116 6
-15 681 -547 778 -612 40 -27 58 -33 102 -33 30 0 70 6 88 14 39 16 775 604
806 643 26 34 26 93 0 126 -21 26 -738 556 -788 583 -30 15 -124 18 -159 4z"/>
<path d="M6028 6260 c-47 -9 -40 -3 -441 -350 -186 -160 -342 -303 -348 -317
-15 -40 -10 -76 14 -111 23 -33 845 -639 907 -669 43 -20 135 -21 172 -2 15 8
165 143 335 300 450 419 413 380 413 431 -1 55 -14 78 -70 120 -140 106 -850
587 -873 592 -56 12 -73 13 -109 6z"/>
<path d="M3933 6210 c-75 -45 -789 -629 -801 -654 -22 -49 -15 -93 21 -131 44
-48 794 -631 837 -652 43 -20 135 -21 172 -2 34 18 749 631 789 677 33 37 38
85 14 132 -15 30 -810 621 -861 640 -44 17 -136 12 -171 -10z"/>
<path d="M1865 6170 c-27 -16 -228 -163 -445 -327 -435 -328 -444 -337 -421
-413 10 -33 60 -78 395 -358 210 -176 397 -327 414 -336 43 -22 127 -20 176 4
63 31 859 672 874 704 18 39 15 90 -7 117 -24 32 -763 610 -799 626 -15 7 -52
12 -82 12 -43 1 -66 -5 -105 -29z"/>
<path d="M5062 5430 c-42 -10 -45 -13 -473 -382 -195 -169 -361 -319 -367
-333 -16 -35 -15 -80 3 -115 16 -31 853 -691 917 -723 48 -24 135 -24 181 0
39 21 750 677 785 725 37 52 26 131 -24 173 -37 30 -862 634 -879 643 -30 15
-105 22 -143 12z"/>
<path d="M2901 5378 c-60 -33 -846 -668 -865 -700 -9 -14 -16 -46 -16 -70 0
-36 6 -51 33 -80 38 -42 762 -648 820 -686 52 -34 143 -37 199 -7 55 30 853
722 866 751 17 37 14 95 -6 126 -22 34 -815 656 -859 674 -50 21 -123 17 -172
-8z"/>
<path d="M6765 5052 c-193 -180 -367 -348 -388 -372 -74 -87 -91 -139 -193
-584 -52 -230 -94 -426 -92 -435 8 -41 42 -19 195 127 387 368 559 545 592
608 33 66 281 908 281 957 0 63 -36 36 -395 -301z"/>
<path d="M917 5283 c-14 -14 -4 -64 98 -483 111 -458 126 -502 203 -586 31
-36 197 -181 651 -572 84 -73 125 -89 138 -56 3 9 -26 204 -66 433 -66 381
-75 422 -107 487 -21 43 -56 91 -87 122 -29 27 -216 188 -416 356 -342 287
-391 322 -414 299z"/>
<path d="M4036 4539 c-51 -12 -35 1 -496 -398 -221 -191 -403 -355 -412 -373
-22 -39 -23 -77 -4 -122 10 -25 129 -130 452 -401 242 -202 452 -373 468 -382
49 -26 127 -28 177 -6 30 14 173 140 444 391 220 204 410 386 423 403 15 22
22 46 22 78 0 32 -7 56 -22 78 -22 31 -842 679 -902 713 -40 23 -101 30 -150
19z"/>
<path d="M6153 4478 c-22 -19 -203 -187 -403 -373 -367 -343 -418 -399 -454
-498 -16 -44 -126 -753 -126 -812 0 -41 12 -50 45 -33 26 14 589 552 704 673
107 113 111 124 217 592 52 230 93 431 92 448 -4 41 -27 42 -75 3z"/>
<path d="M1921 4421 c-12 -21 118 -815 144 -886 8 -22 34 -65 58 -96 46 -62
760 -690 815 -717 30 -15 34 -15 49 1 16 16 15 42 -16 414 -31 382 -33 400
-61 460 -15 34 -48 83 -72 109 -46 51 -819 703 -855 722 -31 17 -51 15 -62 -7z"/>
<path d="M6465 3924 c-326 -317 -370 -365 -412 -449 -26 -50 -178 -716 -170
-739 6 -15 9 -15 34 -2 16 8 170 158 344 333 254 256 321 330 346 378 35 69
238 768 229 790 -3 8 -12 15 -21 15 -8 0 -166 -147 -350 -326z"/>
<path d="M1185 4141 c-3 -10 35 -185 86 -389 81 -334 94 -377 127 -428 27 -40
131 -140 369 -353 183 -164 344 -303 358 -311 53 -29 53 -14 -9 347 -62 363
-79 420 -147 497 -33 39 -682 607 -729 639 -32 22 -47 21 -55 -2z"/>
<path d="M5172 3553 c-7 -3 -201 -180 -430 -395 -428 -400 -497 -474 -521
-566 -10 -37 -41 -573 -41 -709 0 -69 1 -73 23 -73 12 0 34 8 49 18 46 30 758
723 799 777 21 28 45 68 54 88 19 45 127 774 123 825 -3 37 -22 49 -56 35z"/>
<path d="M3005 3516 c-18 -13 -18 -23 13 -421 l32 -407 31 -59 c17 -32 59 -85
93 -118 124 -120 782 -684 814 -698 48 -20 72 -4 73 50 0 23 6 188 12 366 9
238 9 337 1 368 -24 95 -67 138 -519 517 -236 199 -443 371 -460 383 -42 30
-68 35 -90 19z"/>
<path d="M5812 3291 c-75 -71 -246 -237 -379 -368 -200 -197 -247 -248 -271
-298 -26 -52 -36 -102 -76 -365 -25 -168 -46 -317 -46 -332 0 -31 13 -43 34
-31 8 4 169 161 358 348 281 278 349 351 375 401 25 47 49 134 108 393 41 184
75 344 75 357 0 49 -39 26 -178 -105z"/>
<path d="M2100 3318 c0 -17 25 -178 55 -356 56 -324 67 -365 118 -434 28 -38
700 -638 742 -663 62 -37 63 -33 33 332 -30 363 -35 381 -115 470 -37 41 -714
632 -763 666 -13 9 -35 17 -47 17 -19 0 -23 -5 -23 -32z"/>
<path d="M6214 2988 c-249 -249 -338 -346 -357 -384 -27 -54 -162 -618 -151
-635 10 -17 25 -9 81 44 140 131 561 577 586 618 28 49 197 616 197 663 0 14
-6 26 -12 26 -7 0 -162 -150 -344 -332z"/>
<path d="M1413 3214 c-7 -18 -3 -33 84 -394 52 -211 61 -241 98 -295 28 -41
134 -146 345 -338 168 -153 313 -283 323 -288 23 -13 37 -3 37 26 0 13 -20
142 -45 287 -50 289 -64 331 -137 410 -37 40 -550 501 -646 581 -39 31 -50 33
-59 11z"/>
<path d="M4952 2461 c-48 -44 -231 -223 -408 -398 -248 -245 -328 -331 -350
-373 -28 -55 -28 -57 -43 -362 -8 -169 -12 -311 -8 -314 23 -24 82 27 428 374
274 275 372 380 393 421 25 46 34 94 76 379 26 180 45 332 43 339 -11 28 -47
10 -131 -66z"/>
<path d="M5744 2521 c-16 -10 -178 -169 -360 -352 -269 -272 -336 -344 -357
-389 -20 -43 -34 -112 -65 -320 -24 -155 -36 -269 -31 -274 5 -6 19 -4 35 5
15 8 165 155 334 327 232 236 315 327 338 370 22 42 46 129 91 329 34 150 61
281 61 292 0 29 -13 32 -46 12z"/>
<path d="M3073 2484 c-3 -9 5 -161 19 -338 27 -345 30 -359 94 -435 41 -49
731 -663 773 -689 21 -12 45 -20 54 -17 19 8 25 74 33 387 6 227 6 238 -14
280 -12 23 -35 60 -52 81 -30 35 -743 661 -821 720 -41 30 -77 35 -86 11z"/>
<path d="M2253 2453 c-4 -10 14 -144 41 -298 54 -320 60 -335 164 -438 120
-117 602 -554 628 -567 47 -26 49 -11 30 232 -23 299 -29 330 -67 390 -22 34
-142 148 -358 342 -434 388 -423 379 -438 339z"/>
<path d="M4545 1328 c-276 -277 -377 -385 -394 -421 -20 -43 -24 -73 -35 -295
-7 -136 -10 -251 -5 -255 4 -5 16 -6 26 -3 11 4 172 160 359 349 266 267 346
354 367 397 23 46 34 98 67 320 21 145 36 268 34 272 -20 31 -63 -7 -419 -364z"/>
<path d="M3137 1656 c-3 -8 3 -130 14 -273 21 -284 27 -308 95 -382 57 -64
662 -614 698 -635 58 -35 63 -25 70 136 4 79 8 195 9 259 l2 116 -37 55 c-25
38 -146 154 -398 379 -199 178 -374 332 -389 341 -32 22 -57 23 -64 4z"/>
</g>
</svg>
